<svg width="20" height="21" viewBox="0 0 20 21" fill="none" xmlns="http://www.w3.org/2000/svg">
<g clip-path="url(#clip0_80_323)">
<path d="M6.24967 9.25H5.41634C5.19533 9.25 4.98337 9.3378 4.82709 9.49408C4.67081 9.65036 4.58301 9.86232 4.58301 10.0833C4.58301 10.3043 4.67081 10.5163 4.82709 10.6726C4.98337 10.8289 5.19533 10.9167 5.41634 10.9167H6.24967C6.47069 10.9167 6.68265 10.8289 6.83893 10.6726C6.99521 10.5163 7.08301 10.3043 7.08301 10.0833C7.08301 9.86232 6.99521 9.65036 6.83893 9.49408C6.68265 9.3378 6.47069 9.25 6.24967 9.25Z" fill="#31708F"/>
<path d="M10.4167 9.25H9.58333C9.36232 9.25 9.15036 9.3378 8.99408 9.49408C8.8378 9.65036 8.75 9.86232 8.75 10.0833C8.75 10.3043 8.8378 10.5163 8.99408 10.6726C9.15036 10.8289 9.36232 10.9167 9.58333 10.9167H10.4167C10.6377 10.9167 10.8496 10.8289 11.0059 10.6726C11.1622 10.5163 11.25 10.3043 11.25 10.0833C11.25 9.86232 11.1622 9.65036 11.0059 9.49408C10.8496 9.3378 10.6377 9.25 10.4167 9.25Z" fill="#31708F"/>
<path d="M14.5832 9.25H13.7498C13.5288 9.25 13.3169 9.3378 13.1606 9.49408C13.0043 9.65036 12.9165 9.86232 12.9165 10.0833C12.9165 10.3043 13.0043 10.5163 13.1606 10.6726C13.3169 10.8289 13.5288 10.9167 13.7498 10.9167H14.5832C14.8042 10.9167 15.0161 10.8289 15.1724 10.6726C15.3287 10.5163 15.4165 10.3043 15.4165 10.0833C15.4165 9.86232 15.3287 9.65036 15.1724 9.49408C15.0161 9.3378 14.8042 9.25 14.5832 9.25Z" fill="#31708F"/>
<path d="M6.24967 12.5833H5.41634C5.19533 12.5833 4.98337 12.671 4.82709 12.8273C4.67081 12.9836 4.58301 13.1956 4.58301 13.4166C4.58301 13.6376 4.67081 13.8496 4.82709 14.0058C4.98337 14.1621 5.19533 14.2499 5.41634 14.2499H6.24967C6.47069 14.2499 6.68265 14.1621 6.83893 14.0058C6.99521 13.8496 7.08301 13.6376 7.08301 13.4166C7.08301 13.1956 6.99521 12.9836 6.83893 12.8273C6.68265 12.671 6.47069 12.5833 6.24967 12.5833Z" fill="#31708F"/>
<path d="M10.4167 12.5833H9.58333C9.36232 12.5833 9.15036 12.671 8.99408 12.8273C8.8378 12.9836 8.75 13.1956 8.75 13.4166C8.75 13.6376 8.8378 13.8496 8.99408 14.0058C9.15036 14.1621 9.36232 14.2499 9.58333 14.2499H10.4167C10.6377 14.2499 10.8496 14.1621 11.0059 14.0058C11.1622 13.8496 11.25 13.6376 11.25 13.4166C11.25 13.1956 11.1622 12.9836 11.0059 12.8273C10.8496 12.671 10.6377 12.5833 10.4167 12.5833Z" fill="#31708F"/>
<path d="M14.5832 12.5833H13.7498C13.5288 12.5833 13.3169 12.671 13.1606 12.8273C13.0043 12.9836 12.9165 13.1956 12.9165 13.4166C12.9165 13.6376 13.0043 13.8496 13.1606 14.0058C13.3169 14.1621 13.5288 14.2499 13.7498 14.2499H14.5832C14.8042 14.2499 15.0161 14.1621 15.1724 14.0058C15.3287 13.8496 15.4165 13.6376 15.4165 13.4166C15.4165 13.1956 15.3287 12.9836 15.1724 12.8273C15.0161 12.671 14.8042 12.5833 14.5832 12.5833Z" fill="#31708F"/>
<path d="M6.24967 15.9167H5.41634C5.19533 15.9167 4.98337 16.0045 4.82709 16.1608C4.67081 16.3171 4.58301 16.5291 4.58301 16.7501C4.58301 16.9711 4.67081 17.1831 4.82709 17.3393C4.98337 17.4956 5.19533 17.5834 5.41634 17.5834H6.24967C6.47069 17.5834 6.68265 17.4956 6.83893 17.3393C6.99521 17.1831 7.08301 16.9711 7.08301 16.7501C7.08301 16.5291 6.99521 16.3171 6.83893 16.1608C6.68265 16.0045 6.47069 15.9167 6.24967 15.9167Z" fill="#31708F"/>
<path d="M10.4167 15.9167H9.58333C9.36232 15.9167 9.15036 16.0045 8.99408 16.1608C8.8378 16.3171 8.75 16.5291 8.75 16.7501C8.75 16.9711 8.8378 17.1831 8.99408 17.3393C9.15036 17.4956 9.36232 17.5834 9.58333 17.5834H10.4167C10.6377 17.5834 10.8496 17.4956 11.0059 17.3393C11.1622 17.1831 11.25 16.9711 11.25 16.7501C11.25 16.5291 11.1622 16.3171 11.0059 16.1608C10.8496 16.0045 10.6377 15.9167 10.4167 15.9167Z" fill="#31708F"/>
<path d="M14.5832 15.9167H13.7498C13.5288 15.9167 13.3169 16.0045 13.1606 16.1608C13.0043 16.3171 12.9165 16.5291 12.9165 16.7501C12.9165 16.9711 13.0043 17.1831 13.1606 17.3393C13.3169 17.4956 13.5288 17.5834 13.7498 17.5834H14.5832C14.8042 17.5834 15.0161 17.4956 15.1724 17.3393C15.3287 17.1831 15.4165 16.9711 15.4165 16.7501C15.4165 16.5291 15.3287 16.3171 15.1724 16.1608C15.0161 16.0045 14.8042 15.9167 14.5832 15.9167Z" fill="#31708F"/>
<path d="M17.9165 3H15.6248C15.5696 3 15.5166 2.97805 15.4775 2.93898C15.4385 2.89991 15.4165 2.84692 15.4165 2.79167V1.33333C15.4165 1.11232 15.3287 0.900358 15.1724 0.744078C15.0161 0.587797 14.8042 0.5 14.5832 0.5C14.3622 0.5 14.1502 0.587797 13.9939 0.744078C13.8376 0.900358 13.7498 1.11232 13.7498 1.33333V5.29167C13.7498 5.45743 13.684 5.6164 13.5668 5.73361C13.4496 5.85082 13.2906 5.91667 13.1248 5.91667C12.9591 5.91667 12.8001 5.85082 12.6829 5.73361C12.5657 5.6164 12.4998 5.45743 12.4998 5.29167V3.41667C12.4998 3.30616 12.4559 3.20018 12.3778 3.12204C12.2997 3.0439 12.1937 3 12.0832 3H6.87484C6.81958 3 6.76659 2.97805 6.72752 2.93898C6.68845 2.89991 6.6665 2.84692 6.6665 2.79167V1.33333C6.6665 1.11232 6.57871 0.900358 6.42243 0.744078C6.26615 0.587797 6.05418 0.5 5.83317 0.5C5.61216 0.5 5.4002 0.587797 5.24392 0.744078C5.08763 0.900358 4.99984 1.11232 4.99984 1.33333V5.29167C4.99984 5.45743 4.93399 5.6164 4.81678 5.73361C4.69957 5.85082 4.5406 5.91667 4.37484 5.91667C4.20908 5.91667 4.05011 5.85082 3.9329 5.73361C3.81569 5.6164 3.74984 5.45743 3.74984 5.29167V3.41667C3.74984 3.30616 3.70594 3.20018 3.6278 3.12204C3.54966 3.0439 3.44368 3 3.33317 3H2.08317C1.64114 3 1.21722 3.17559 0.904659 3.48816C0.592099 3.80072 0.416504 4.22464 0.416504 4.66667V18.8333C0.416504 19.2754 0.592099 19.6993 0.904659 20.0118C1.21722 20.3244 1.64114 20.5 2.08317 20.5H17.9165C18.3585 20.5 18.7825 20.3244 19.095 20.0118C19.4076 19.6993 19.5832 19.2754 19.5832 18.8333V4.66667C19.5832 4.22464 19.4076 3.80072 19.095 3.48816C18.7825 3.17559 18.3585 3 17.9165 3ZM17.9165 18.4167C17.9165 18.5272 17.8726 18.6332 17.7945 18.7113C17.7163 18.7894 17.6103 18.8333 17.4998 18.8333H2.49984C2.38933 18.8333 2.28335 18.7894 2.20521 18.7113C2.12707 18.6332 2.08317 18.5272 2.08317 18.4167V8.41667C2.08317 8.30616 2.12707 8.20018 2.20521 8.12204C2.28335 8.0439 2.38933 8 2.49984 8H17.4998C17.6103 8 17.7163 8.0439 17.7945 8.12204C17.8726 8.20018 17.9165 8.30616 17.9165 8.41667V18.4167Z" fill="#31708F"/>
</g>
<defs>
<clipPath id="clip0_80_323">
<rect width="20" height="20" fill="white" transform="translate(0 0.5)"/>
</clipPath>
</defs>
</svg>
