<svg width="20" height="19" viewBox="0 0 20 19" fill="none" xmlns="http://www.w3.org/2000/svg">
<g clip-path="url(#clip0_80_155)">
<path d="M9.0154 4.88458L14.6125 10.4825L8.93386 16.1619C8.67101 16.4247 8.32406 16.5867 7.95378 16.6195L7.81445 16.625H3.67165C3.25999 16.625 2.92036 16.3131 2.87682 15.9125L2.87207 15.8254V11.6826C2.87216 11.3109 3.00304 10.9511 3.24178 10.6661L3.33678 10.5632L9.0154 4.88458ZM11.5012 2.39875C11.7814 2.11854 12.1565 1.95357 12.5524 1.93642C12.9482 1.91927 13.3362 2.05119 13.6395 2.30612L13.7401 2.39875L17.0991 5.75779C17.3791 6.03793 17.5439 6.41283 17.5611 6.80853C17.5782 7.20422 17.4464 7.59198 17.1917 7.89529L17.0991 7.99662L15.7327 9.36304L10.1356 3.76516L11.5012 2.39875Z" fill="#8FC1E2"/>
</g>
<defs>
<clipPath id="clip0_80_155">
<rect width="19" height="19" fill="white" transform="translate(0.5)"/>
</clipPath>
</defs>
</svg>
