<svg width="19" height="19" viewBox="0 0 19 19" fill="none" xmlns="http://www.w3.org/2000/svg">
<path d="M16.375 12.3373V17.3822C16.375 17.8615 15.9857 18.25 15.5058 18.25H1.49423C1.01417 18.25 0.625 17.8572 0.625 17.3684V6.875H5.875C6.35824 6.875 6.75 6.48324 6.75 6V0.75H15.5015C15.984 0.75 16.375 1.1484 16.375 1.61782V4.91269L8.50105 12.7867L8.49562 16.4956L12.2112 16.501L16.375 12.3373ZM17.0559 6.70666L18.2934 7.94407L11.4874 14.75L10.2482 14.7482L10.25 13.5126L17.0559 6.70666ZM0.625 5.125L5 0.752783V5.125H0.625Z" fill="#C4C4C4"/>
</svg>
