<svg width="58" height="58" viewBox="0 0 58 58" fill="none" xmlns="http://www.w3.org/2000/svg">
<path d="M56.3674 4.79034H37.4208C33.8724 4.792 30.6224 6.7765 29 9.93227C27.3776 6.7765 24.1277 4.792 20.5793 4.79034H1.6326C1.05129 4.79034 0.580017 5.26162 0.580017 5.84293V43.7363C0.580017 44.3176 1.05129 44.7889 1.6326 44.7889H20.5793C24.6486 44.7889 27.9474 48.0877 27.9474 52.157C27.9486 52.9673 28.8265 53.4724 29.5277 53.0663C29.8521 52.8783 30.0521 52.532 30.0526 52.157C30.0526 48.0877 33.3514 44.7889 37.4208 44.7889H56.3674C56.9488 44.7889 57.42 44.3176 57.42 43.7363V5.84293C57.42 5.26162 56.9488 4.79034 56.3674 4.79034ZM20.5793 42.6837H2.68521V6.89554H20.5793C24.6486 6.89554 27.9474 10.1944 27.9474 14.2637V46.2099C26.152 43.9794 23.4426 42.6828 20.5793 42.6837ZM55.3148 42.6837H37.4208C34.5571 42.6838 31.8478 43.9814 30.0526 46.2125V14.2637C30.0526 10.1944 33.3514 6.89554 37.4208 6.89554H55.3148V42.6837Z" fill="#31708F"/>
</svg>
