<svg width="24" height="25" viewBox="0 0 24 25" fill="none" xmlns="http://www.w3.org/2000/svg">
<path d="M10.75 18.5C10.5375 18.5 10.3594 18.4277 10.2157 18.283C10.0719 18.1385 10 17.9594 10 17.7455C10 17.5319 10.0719 17.3541 10.2157 17.2125C10.3594 17.0708 10.5375 17 10.75 17H13.25C13.4625 17 13.6406 17.0723 13.7845 17.217C13.9282 17.3615 14 17.5406 14 17.7545C14 17.9681 13.9282 18.1459 13.7845 18.2875C13.6406 18.4292 13.4625 18.5 13.25 18.5H10.75ZM6.75 13.25C6.5375 13.25 6.3594 13.1776 6.21575 13.033C6.0719 12.8885 6 12.7093 6 12.4955C6 12.2818 6.0719 12.1041 6.21575 11.9625C6.3594 11.8208 6.5375 11.75 6.75 11.75H17.25C17.4625 11.75 17.6406 11.8224 17.7845 11.967C17.9282 12.1115 18 12.2907 18 12.5045C18 12.7182 17.9282 12.8959 17.7845 13.0375C17.6406 13.1792 17.4625 13.25 17.25 13.25H6.75ZM3.75 8C3.5375 8 3.35941 7.92765 3.21575 7.783C3.07191 7.6385 3 7.45935 3 7.2455C3 7.03185 3.07191 6.85415 3.21575 6.7125C3.35941 6.57085 3.5375 6.5 3.75 6.5H20.25C20.4625 6.5 20.6406 6.57235 20.7845 6.717C20.9282 6.8615 21 7.04065 21 7.2545C21 7.46815 20.9282 7.64585 20.7845 7.7875C20.6406 7.92915 20.4625 8 20.25 8H3.75Z" fill="#31708F"/>
</svg>
