<svg width="50" height="49" viewBox="0 0 50 49" fill="none" xmlns="http://www.w3.org/2000/svg">
<path d="M26.5623 29.7062H29.6873V22.9687H36.5623V19.9062H29.6873V13.1687H26.5623V19.9062H19.6873V22.9687H26.5623V29.7062ZM13.5415 38.7916C12.7082 38.7916 11.979 38.4853 11.354 37.8728C10.729 37.2603 10.4165 36.5457 10.4165 35.7291V7.14575C10.4165 6.32909 10.729 5.6145 11.354 5.002C11.979 4.3895 12.7082 4.08325 13.5415 4.08325H42.7082C43.5415 4.08325 44.2707 4.3895 44.8957 5.002C45.5207 5.6145 45.8332 6.32909 45.8332 7.14575V35.7291C45.8332 36.5457 45.5207 37.2603 44.8957 37.8728C44.2707 38.4853 43.5415 38.7916 42.7082 38.7916H13.5415ZM13.5415 35.7291H42.7082V7.14575H13.5415V35.7291ZM7.2915 44.9166C6.45817 44.9166 5.729 44.6103 5.104 43.9978C4.479 43.3853 4.1665 42.6707 4.1665 41.8541V10.2083H7.2915V41.8541H39.5832V44.9166H7.2915Z" fill="#31708F"/>
</svg>
