<svg width="191" height="44" viewBox="0 0 191 44" fill="none" xmlns="http://www.w3.org/2000/svg">
<path d="M165.955 21.44C165.763 21.44 165.56 21.376 165.347 21.248C165.155 21.1413 165.059 21.0133 165.059 20.864C165.059 20.5013 165.326 20.2667 165.859 20.16C166.67 19.9893 167.192 19.776 167.427 19.52C167.662 19.264 167.779 18.8053 167.779 18.144V3.616C167.779 2.93333 167.64 2.45333 167.363 2.17599C167.086 1.89866 166.52 1.66399 165.667 1.47199C165.262 1.36533 165.059 1.13066 165.059 0.767994C165.059 0.618661 165.123 0.501328 165.251 0.415995C165.379 0.330661 165.507 0.287994 165.635 0.287994C166.104 0.287994 166.627 0.298661 167.203 0.319994C167.8 0.341327 168.376 0.373327 168.931 0.415995C169.507 0.437328 170.008 0.447994 170.435 0.447994C170.862 0.447994 171.374 0.437328 171.971 0.415995C172.568 0.394662 173.176 0.373328 173.795 0.351994C174.414 0.33066 174.947 0.319994 175.395 0.319994C175.566 0.319994 175.694 0.362661 175.779 0.447994C175.864 0.511995 175.907 0.629328 175.907 0.799994C175.907 1.01333 175.854 1.16266 175.747 1.248C175.64 1.33333 175.491 1.40799 175.299 1.47199C174.424 1.72799 173.859 1.99466 173.603 2.27199C173.347 2.54933 173.219 3.00799 173.219 3.64799V10.272C173.219 10.4427 173.251 10.5707 173.315 10.656C173.4 10.72 173.486 10.752 173.571 10.752C173.678 10.752 173.784 10.7093 173.891 10.624C174.019 10.5387 174.168 10.4213 174.339 10.272L180.451 3.616C180.622 3.424 180.76 3.25333 180.867 3.10399C180.995 2.93333 181.059 2.77333 181.059 2.62399C181.059 2.15466 180.568 1.81333 179.587 1.59999C179.395 1.55733 179.246 1.48266 179.139 1.37599C179.032 1.24799 178.979 1.08799 178.979 0.895994C178.979 0.746661 179.043 0.629328 179.171 0.543995C179.299 0.458661 179.427 0.415995 179.555 0.415995H181.859C182.606 0.415995 183.31 0.415995 183.971 0.415995C184.654 0.394662 185.347 0.373328 186.051 0.351994C186.776 0.33066 187.576 0.319994 188.451 0.319994C188.664 0.319994 188.856 0.362661 189.027 0.447994C189.219 0.511995 189.315 0.629328 189.315 0.799994C189.315 1.01333 189.198 1.17333 188.963 1.27999C188.75 1.36533 188.547 1.42933 188.355 1.47199C187.224 1.62133 186.264 1.87733 185.475 2.23999C184.707 2.58133 184.024 2.97599 183.427 3.42399C182.808 3.89333 182.2 4.40533 181.603 4.96C181.027 5.51466 180.44 6.09066 179.843 6.68799C179.267 7.28533 178.659 7.872 178.019 8.448C177.678 8.74666 177.678 9.08799 178.019 9.47199L185.667 18.112C185.923 18.3893 186.19 18.656 186.467 18.912C186.766 19.168 187.107 19.4027 187.491 19.616C187.875 19.808 188.344 19.9893 188.899 20.16C189.091 20.224 189.304 20.2987 189.539 20.384C189.774 20.4693 189.891 20.6187 189.891 20.832C189.891 20.9813 189.774 21.12 189.539 21.248C189.326 21.3547 189.006 21.408 188.579 21.408C187.939 21.408 187.288 21.3867 186.627 21.344C185.966 21.3013 185.294 21.2693 184.611 21.248C183.95 21.2053 183.278 21.184 182.595 21.184C181.806 21.184 181.07 21.2053 180.387 21.248C179.726 21.312 179.022 21.344 178.275 21.344C178.147 21.344 178.019 21.3013 177.891 21.216C177.763 21.1307 177.699 21.0133 177.699 20.864C177.699 20.5013 177.902 20.2667 178.307 20.16C179.203 19.9893 179.672 19.68 179.715 19.232C179.715 19.0613 179.662 18.8907 179.555 18.72C179.47 18.5493 179.342 18.3573 179.171 18.144L174.307 12.384C174.158 12.2133 174.019 12.0853 173.891 12C173.763 11.9147 173.646 11.872 173.539 11.872C173.454 11.872 173.368 11.9147 173.283 12C173.219 12.0853 173.187 12.2133 173.187 12.384C173.187 13.344 173.187 14.304 173.187 15.264C173.208 16.2027 173.24 17.152 173.283 18.112C173.304 18.496 173.347 18.816 173.411 19.072C173.496 19.3067 173.656 19.5093 173.891 19.68C174.147 19.8293 174.552 19.9893 175.107 20.16C175.299 20.224 175.48 20.2987 175.651 20.384C175.822 20.4693 175.907 20.6187 175.907 20.832C175.907 20.9813 175.811 21.1093 175.619 21.216C175.427 21.3227 175.224 21.376 175.011 21.376C174.328 21.376 173.72 21.3547 173.187 21.312C172.654 21.2693 172.163 21.2267 171.715 21.184C171.288 21.1413 170.862 21.12 170.435 21.12C170.008 21.12 169.592 21.152 169.187 21.216C168.782 21.2587 168.323 21.3013 167.811 21.344C167.32 21.408 166.702 21.44 165.955 21.44Z" fill="#31708F"/>
<path d="M154.259 21.696C152.766 21.696 151.347 21.4507 150.003 20.96C148.659 20.448 147.464 19.7333 146.419 18.816C145.374 17.8773 144.552 16.768 143.955 15.488C143.358 14.1867 143.059 12.7467 143.059 11.168C143.059 9.71733 143.304 8.33067 143.795 7.008C144.286 5.664 145.011 4.46933 145.971 3.424C146.952 2.37867 148.158 1.54667 149.587 0.927999C151.016 0.309333 152.67 0 154.547 0C156.04 0 157.459 0.256 158.803 0.768C160.147 1.25867 161.342 1.97333 162.387 2.912C163.432 3.82933 164.254 4.93867 164.851 6.24C165.448 7.52 165.747 8.94933 165.747 10.528C165.747 11.9573 165.502 13.344 165.011 14.688C164.52 16.032 163.784 17.2267 162.803 18.272C161.843 19.3173 160.648 20.1493 159.219 20.768C157.79 21.3867 156.136 21.696 154.259 21.696ZM154.835 20.192C155.966 20.192 156.904 19.8507 157.651 19.168C158.419 18.4853 158.995 17.5467 159.379 16.352C159.763 15.136 159.955 13.7493 159.955 12.192C159.955 10.912 159.838 9.64267 159.603 8.384C159.368 7.12533 159.006 5.984 158.515 4.96C158.024 3.91467 157.395 3.08267 156.627 2.464C155.88 1.84533 154.974 1.536 153.907 1.536C152.798 1.536 151.859 1.87733 151.091 2.56C150.344 3.24267 149.779 4.18133 149.395 5.376C149.032 6.57067 148.851 7.94667 148.851 9.504C148.851 10.784 148.968 12.0533 149.203 13.312C149.438 14.5707 149.79 15.7227 150.259 16.768C150.75 17.792 151.368 18.624 152.115 19.264C152.883 19.8827 153.79 20.192 154.835 20.192Z" fill="#31708F"/>
<path d="M130.259 21.696C128.766 21.696 127.347 21.4507 126.003 20.96C124.659 20.448 123.464 19.7333 122.419 18.816C121.374 17.8773 120.552 16.768 119.955 15.488C119.358 14.1867 119.059 12.7467 119.059 11.168C119.059 9.71733 119.304 8.33067 119.795 7.008C120.286 5.664 121.011 4.46933 121.971 3.424C122.952 2.37867 124.158 1.54667 125.587 0.927999C127.016 0.309333 128.67 0 130.547 0C132.04 0 133.459 0.256 134.803 0.768C136.147 1.25867 137.342 1.97333 138.387 2.912C139.432 3.82933 140.254 4.93867 140.851 6.24C141.448 7.52 141.747 8.94933 141.747 10.528C141.747 11.9573 141.502 13.344 141.011 14.688C140.52 16.032 139.784 17.2267 138.803 18.272C137.843 19.3173 136.648 20.1493 135.219 20.768C133.79 21.3867 132.136 21.696 130.259 21.696ZM130.835 20.192C131.966 20.192 132.904 19.8507 133.651 19.168C134.419 18.4853 134.995 17.5467 135.379 16.352C135.763 15.136 135.955 13.7493 135.955 12.192C135.955 10.912 135.838 9.64267 135.603 8.384C135.368 7.12533 135.006 5.984 134.515 4.96C134.024 3.91467 133.395 3.08267 132.627 2.464C131.88 1.84533 130.974 1.536 129.907 1.536C128.798 1.536 127.859 1.87733 127.091 2.56C126.344 3.24267 125.779 4.18133 125.395 5.376C125.032 6.57067 124.851 7.94667 124.851 9.504C124.851 10.784 124.968 12.0533 125.203 13.312C125.438 14.5707 125.79 15.7227 126.259 16.768C126.75 17.792 127.368 18.624 128.115 19.264C128.883 19.8827 129.79 20.192 130.835 20.192Z" fill="#31708F"/>
<path d="M99.64 21.408C99.448 21.408 99.2987 21.3547 99.192 21.248C99.0853 21.1413 99.032 21.024 99.032 20.896C99.032 20.576 99.2453 20.352 99.672 20.224C100.376 20.0107 100.867 19.7867 101.144 19.552C101.443 19.3173 101.592 18.8693 101.592 18.208V3.616C101.592 2.93333 101.453 2.45333 101.176 2.176C100.92 1.87733 100.419 1.64267 99.672 1.472C99.416 1.408 99.2347 1.312 99.128 1.184C99.0427 1.056 99 0.927998 99 0.799997C99 0.650665 99.0533 0.533332 99.16 0.447998C99.288 0.341331 99.448 0.287998 99.64 0.287998C100.344 0.287998 100.931 0.309331 101.4 0.351997C101.869 0.394665 102.317 0.437332 102.744 0.479998C103.171 0.522665 103.661 0.543999 104.216 0.543999C104.728 0.543999 105.197 0.522665 105.624 0.479998C106.051 0.415998 106.52 0.362665 107.032 0.319998C107.565 0.255999 108.216 0.223999 108.984 0.223999C111.523 0.223999 113.453 0.586665 114.776 1.312C116.12 2.016 116.792 3.24266 116.792 4.992C116.792 5.632 116.632 6.25066 116.312 6.848C116.013 7.44533 115.597 7.95733 115.064 8.384C114.723 8.66133 114.349 8.90666 113.944 9.12C113.56 9.312 113.144 9.46133 112.696 9.568C112.611 9.58933 112.568 9.64266 112.568 9.728C112.568 9.81333 112.611 9.86667 112.696 9.888C113.272 9.99467 113.859 10.1547 114.456 10.368C115.075 10.56 115.651 10.848 116.184 11.232C116.717 11.616 117.144 12.1173 117.464 12.736C117.784 13.3333 117.944 14.1013 117.944 15.04C117.944 16.2347 117.752 17.184 117.368 17.888C117.005 18.592 116.557 19.1253 116.024 19.488C115.491 19.8507 115 20.1493 114.552 20.384C113.848 20.7253 113.048 20.9813 112.152 21.152C111.256 21.3013 110.189 21.376 108.952 21.376C108.141 21.376 107.363 21.3547 106.616 21.312C105.869 21.2693 105.08 21.248 104.248 21.248C103.821 21.248 103.32 21.2587 102.744 21.28C102.189 21.3013 101.635 21.3227 101.08 21.344C100.547 21.3867 100.067 21.408 99.64 21.408ZM108.856 19.52C109.453 19.52 109.997 19.3387 110.488 18.976C111 18.592 111.405 18.08 111.704 17.44C112.003 16.8 112.152 16.0853 112.152 15.296C112.152 14.5707 112.067 13.9733 111.896 13.504C111.747 13.0347 111.555 12.6613 111.32 12.384C111.107 12.0853 110.904 11.8613 110.712 11.712C110.563 11.5627 110.285 11.4133 109.88 11.264C109.496 11.0933 109.016 11.008 108.44 11.008C108.163 11.008 107.853 11.0933 107.512 11.264C107.192 11.4133 107.032 11.6693 107.032 12.032V17.536C107.032 18.176 107.192 18.6667 107.512 19.008C107.832 19.3493 108.28 19.52 108.856 19.52ZM108.28 9.472C108.771 9.472 109.208 9.41866 109.592 9.312C109.976 9.184 110.36 8.94933 110.744 8.608C110.893 8.45867 111.085 8.16 111.32 7.712C111.555 7.24267 111.672 6.58133 111.672 5.728C111.672 4.768 111.555 4 111.32 3.424C111.107 2.82666 110.776 2.4 110.328 2.144C109.88 1.86667 109.325 1.728 108.664 1.728C108.131 1.728 107.725 1.84533 107.448 2.08C107.171 2.29333 107.032 2.624 107.032 3.072V8.352C107.032 8.736 107.171 9.024 107.448 9.216C107.747 9.38666 108.024 9.472 108.28 9.472Z" fill="#31708F"/>
<path d="M82.24 21.248C81.9627 21.248 81.7387 21.1947 81.568 21.088C81.4187 20.9813 81.344 20.8533 81.344 20.704C81.344 20.512 81.44 20.3627 81.632 20.256C81.824 20.128 82.0373 20.0427 82.272 20C83.0827 19.8293 83.6373 19.5413 83.936 19.136C84.2347 18.7307 84.384 18.1973 84.384 17.536V13.184C84.384 12.3733 84.2773 11.7227 84.064 11.232C83.872 10.7413 83.6267 10.2507 83.328 9.76L79.136 3.328C78.944 3.02933 78.7413 2.752 78.528 2.496C78.3147 2.21866 78.0587 1.97333 77.76 1.76C77.4827 1.54666 77.1307 1.38666 76.704 1.28C76.512 1.216 76.3413 1.14133 76.192 1.056C76.064 0.970664 76 0.82133 76 0.607996C76 0.43733 76.064 0.319997 76.192 0.255997C76.32 0.170663 76.4587 0.127996 76.608 0.127996C77.6107 0.127996 78.5387 0.159997 79.392 0.223997C80.2453 0.287998 81.152 0.319998 82.112 0.319998C82.8587 0.319998 83.5627 0.287998 84.224 0.223997C84.9067 0.138664 85.6427 0.0959969 86.432 0.0959969C86.6027 0.0959969 86.784 0.138664 86.976 0.223997C87.1893 0.309331 87.296 0.426664 87.296 0.575996C87.296 0.767996 87.1893 0.927997 86.976 1.056C86.784 1.16266 86.592 1.23733 86.4 1.28C85.76 1.42933 85.3013 1.58933 85.024 1.76C84.7467 1.93066 84.608 2.19733 84.608 2.56C84.608 2.90133 84.7253 3.27466 84.96 3.68L88.32 9.408C88.4693 9.68533 88.64 9.824 88.832 9.824C88.9173 9.824 88.992 9.792 89.056 9.728C89.1413 9.64266 89.2267 9.536 89.312 9.408C89.824 8.49066 90.3147 7.584 90.784 6.688C91.2533 5.77066 91.712 4.82133 92.16 3.84C92.2453 3.66933 92.32 3.47733 92.384 3.264C92.448 3.02933 92.48 2.816 92.48 2.624C92.48 2.19733 92.288 1.87733 91.904 1.664C91.52 1.42933 91.104 1.30133 90.656 1.28C90.4427 1.25866 90.2293 1.184 90.016 1.056C89.8027 0.927997 89.696 0.767996 89.696 0.575996C89.696 0.426664 89.792 0.319997 89.984 0.255997C90.1973 0.170663 90.4107 0.127996 90.624 0.127996C91.264 0.127996 91.8507 0.159997 92.384 0.223997C92.9173 0.266663 93.4827 0.287996 94.08 0.287996C94.6133 0.287996 95.1253 0.24533 95.616 0.159996C96.1067 0.0746638 96.672 0.0319977 97.312 0.0319977C97.5467 0.0319977 97.76 0.0746638 97.952 0.159996C98.1653 0.223996 98.272 0.362663 98.272 0.575996C98.272 0.78933 98.176 0.938663 97.984 1.024C97.8133 1.088 97.632 1.152 97.44 1.216C96.8 1.38666 96.2453 1.65333 95.776 2.016C95.3067 2.37866 94.944 2.784 94.688 3.232C94.368 3.76533 94.0373 4.30933 93.696 4.864C93.3547 5.39733 93.0133 5.93066 92.672 6.464C92.352 6.99733 92.0213 7.53066 91.68 8.064C91.36 8.59733 91.04 9.14133 90.72 9.696C90.5707 9.97333 90.4213 10.272 90.272 10.592C90.144 10.912 90.0373 11.264 89.952 11.648C89.8667 12.0107 89.824 12.416 89.824 12.864V17.504C89.824 18.3147 89.9627 18.88 90.24 19.2C90.5387 19.4987 91.104 19.7653 91.936 20C92.1707 20.064 92.384 20.1387 92.576 20.224C92.768 20.3093 92.864 20.4587 92.864 20.672C92.864 20.8213 92.7787 20.9493 92.608 21.056C92.4587 21.1627 92.2667 21.216 92.032 21.216C91.584 21.216 91.0507 21.1947 90.432 21.152C89.8133 21.1093 89.1947 21.0667 88.576 21.024C87.9787 20.9813 87.4667 20.96 87.04 20.96C86.6133 20.96 86.112 20.9813 85.536 21.024C84.9813 21.0667 84.4053 21.1093 83.808 21.152C83.232 21.216 82.7093 21.248 82.24 21.248Z" fill="#8FC1E2"/>
<path d="M48.3761 21.152C48.1201 21.152 47.9281 21.1093 47.8001 21.024C47.6935 20.9387 47.6401 20.8213 47.6401 20.672C47.6401 20.48 47.7361 20.3627 47.9281 20.32C48.1201 20.256 48.3121 20.1813 48.5041 20.096C48.9948 19.904 49.4215 19.5947 49.7841 19.168C50.1681 18.7413 50.4028 18.208 50.4881 17.568C50.5948 16.7787 50.7121 15.7013 50.8401 14.336C50.9681 12.9493 51.1068 11.4133 51.2561 9.728C51.4055 8.02134 51.5548 6.29333 51.7041 4.544C51.7255 4.43733 51.7361 4.288 51.7361 4.096C51.7361 3.904 51.7361 3.69067 51.7361 3.456C51.7361 3.02933 51.6615 2.69867 51.5121 2.464C51.3841 2.22933 51.1815 2.03733 50.9041 1.888C50.6695 1.76 50.4135 1.64267 50.1361 1.536C49.8588 1.408 49.5601 1.30133 49.2401 1.216C48.9841 1.152 48.7708 1.06667 48.6001 0.960001C48.4508 0.853334 48.3761 0.704001 48.3761 0.512001C48.3761 0.320001 48.4508 0.192001 48.6001 0.128C48.7708 0.0426668 48.9735 0 49.2081 0C49.5495 0 49.9548 0.0106672 50.4241 0.0320015C50.9148 0.0533346 51.4481 0.0746676 52.0241 0.0960007C52.6001 0.0960007 53.1868 0.106667 53.7841 0.128C54.4028 0.149333 55.0001 0.16 55.5761 0.16C55.7468 0.16 55.9068 0.224 56.0561 0.352001C56.2055 0.480001 56.3015 0.608 56.3441 0.736C56.5148 1.16267 56.6641 1.55733 56.7921 1.92C56.9201 2.26133 57.0695 2.64533 57.2401 3.072L61.8481 13.92C61.8908 14.0053 61.9335 14.048 61.9761 14.048C62.0401 14.048 62.0828 14.0053 62.1041 13.92L66.2961 3.84C66.4668 3.008 66.5948 2.35733 66.6801 1.888C66.7868 1.39733 66.8828 1.024 66.9681 0.768002C67.0535 0.490668 67.2348 0.352001 67.5121 0.352001H68.9521C69.8908 0.309334 70.8721 0.245333 71.8961 0.16C72.9415 0.0533333 73.7628 0 74.3601 0C74.5948 0 74.7868 0.0426668 74.9361 0.128C75.1068 0.192001 75.1921 0.320001 75.1921 0.512001C75.1921 0.704001 75.1175 0.842668 74.9681 0.928001C74.8188 1.01333 74.6481 1.088 74.4561 1.152C74.3708 1.17333 74.2535 1.216 74.1041 1.28C73.9761 1.344 73.8695 1.39733 73.7841 1.44C73.1441 1.73867 72.6748 2.06933 72.3761 2.432C72.0988 2.79467 71.9815 3.38134 72.0241 4.192C72.0881 5.74933 72.1521 7.08267 72.2161 8.192C72.2801 9.30133 72.3335 10.3253 72.3761 11.264C72.4401 12.2027 72.5041 13.1947 72.5681 14.24C72.6535 15.264 72.7388 16.4907 72.8241 17.92C72.8668 18.4533 73.1015 18.8907 73.5281 19.232C73.9548 19.552 74.4881 19.7973 75.1281 19.968C75.3201 20.032 75.4801 20.1067 75.6081 20.192C75.7575 20.2773 75.8321 20.4267 75.8321 20.64C75.8321 20.7893 75.7681 20.9067 75.6401 20.992C75.5335 21.0773 75.3948 21.12 75.2241 21.12C74.7761 21.12 74.2215 21.1093 73.5601 21.088C72.9201 21.0667 72.2801 21.0453 71.6401 21.024C71.0001 21.0027 70.4668 20.992 70.0401 20.992C69.6135 20.992 69.1121 21.0027 68.5361 21.024C67.9815 21.0453 67.4055 21.0667 66.8081 21.088C66.2321 21.1307 65.7095 21.152 65.2401 21.152C65.0695 21.152 64.9095 21.1093 64.7601 21.024C64.6321 20.9387 64.5681 20.8213 64.5681 20.672C64.5681 20.48 64.6321 20.3307 64.7601 20.224C64.9095 20.096 65.0801 20.0107 65.2721 19.968C66.0828 19.7973 66.6481 19.584 66.9681 19.328C67.2881 19.0507 67.4268 18.592 67.3841 17.952C67.3201 16.672 67.2668 15.3707 67.2241 14.048C67.1815 12.7253 67.1388 11.424 67.0961 10.144C67.0748 8.84267 67.0321 7.616 66.9681 6.464C66.9681 6.336 66.9361 6.28267 66.8721 6.304C66.8081 6.304 66.7441 6.37867 66.6801 6.528L60.8561 20.96C60.7281 21.3013 60.5468 21.44 60.3121 21.376C60.0988 21.312 59.9495 21.1947 59.8641 21.024C58.7548 18.5493 57.6135 16.1067 56.4401 13.696C55.2668 11.2853 54.2215 8.94934 53.3041 6.688C53.2188 6.47467 53.1015 6.4 52.9521 6.464C52.8241 6.528 52.7495 6.69867 52.7281 6.976C52.6855 7.936 52.6535 9.056 52.6321 10.336C52.6321 11.616 52.6428 12.9067 52.6641 14.208C52.6855 15.5093 52.6961 16.6827 52.6961 17.728C52.6961 18.3253 52.8881 18.7947 53.2721 19.136C53.6561 19.4773 54.2748 19.7547 55.1281 19.968C55.3201 20.0107 55.5121 20.0853 55.7041 20.192C55.8961 20.2773 55.9921 20.4267 55.9921 20.64C55.9921 20.7893 55.9068 20.9067 55.7361 20.992C55.5655 21.0773 55.3948 21.12 55.2241 21.12C54.6481 21.12 54.2001 21.1093 53.8801 21.088C53.5601 21.0667 53.2615 21.056 52.9841 21.056C52.7281 21.0347 52.3761 21.024 51.9281 21.024C51.4375 21.024 50.9148 21.0347 50.3601 21.056C49.8055 21.0773 49.3361 21.0987 48.9521 21.12C48.5681 21.1413 48.3761 21.152 48.3761 21.152Z" fill="#8FC1E2"/>
<path d="M189.632 32.16C189.749 32.16 189.84 32.176 189.904 32.208C189.968 32.24 190.011 32.2933 190.032 32.368C190.064 32.432 190.08 32.528 190.08 32.656C190.08 32.7733 190.064 32.8693 190.032 32.944C190 33.008 189.947 33.056 189.872 33.088C189.808 33.1093 189.717 33.12 189.6 33.12H185.92V42.848C185.92 42.9653 185.904 43.0613 185.872 43.136C185.84 43.2 185.787 43.248 185.712 43.28C185.648 43.312 185.557 43.328 185.44 43.328C185.323 43.328 185.227 43.312 185.152 43.28C185.088 43.248 185.04 43.1947 185.008 43.12C184.987 43.0453 184.976 42.9493 184.976 42.832V33.12H181.248C181.131 33.12 181.035 33.1093 180.96 33.088C180.896 33.056 180.848 33.008 180.816 32.944C180.784 32.8693 180.768 32.7733 180.768 32.656C180.768 32.528 180.779 32.432 180.8 32.368C180.832 32.2933 180.88 32.24 180.944 32.208C181.019 32.176 181.109 32.16 181.216 32.16H189.632Z" fill="#3D3D3D"/>
<path d="M166.979 43.472C166.659 43.472 166.334 43.4347 166.003 43.36C165.683 43.2853 165.374 43.1787 165.075 43.04C164.776 42.8907 164.499 42.7147 164.243 42.512C163.998 42.2987 163.795 42.0587 163.635 41.792C163.56 41.664 163.507 41.5627 163.475 41.488C163.443 41.4027 163.438 41.3227 163.459 41.248C163.491 41.1733 163.566 41.0987 163.683 41.024C163.822 40.928 163.939 40.8907 164.035 40.912C164.131 40.9227 164.216 40.9707 164.291 41.056C164.366 41.1413 164.446 41.248 164.531 41.376C164.798 41.7707 165.155 42.064 165.603 42.256C166.062 42.4373 166.499 42.528 166.915 42.528C167.459 42.528 167.95 42.4533 168.387 42.304C168.824 42.1547 169.171 41.9307 169.427 41.632C169.694 41.3227 169.827 40.928 169.827 40.448C169.827 40.0533 169.742 39.7173 169.571 39.44C169.411 39.1627 169.187 38.928 168.899 38.736C168.611 38.544 168.291 38.384 167.939 38.256C167.598 38.1173 167.24 37.9893 166.867 37.872C166.558 37.776 166.248 37.6693 165.939 37.552C165.64 37.4347 165.358 37.3013 165.091 37.152C164.824 36.992 164.59 36.8107 164.387 36.608C164.184 36.3947 164.024 36.144 163.907 35.856C163.79 35.568 163.731 35.2267 163.731 34.832C163.731 34.2667 163.864 33.776 164.131 33.36C164.408 32.9333 164.792 32.6027 165.283 32.368C165.774 32.1227 166.344 32 166.995 32C167.347 32 167.683 32.0373 168.003 32.112C168.323 32.1867 168.611 32.288 168.867 32.416C169.134 32.5333 169.363 32.6667 169.555 32.816C169.758 32.9547 169.918 33.0987 170.035 33.248C170.174 33.408 170.254 33.5413 170.275 33.648C170.296 33.7547 170.232 33.872 170.083 34C169.955 34.1067 169.838 34.16 169.731 34.16C169.624 34.1493 169.512 34.08 169.395 33.952C169.15 33.664 168.894 33.4507 168.627 33.312C168.371 33.1627 168.104 33.0667 167.827 33.024C167.56 32.9707 167.278 32.944 166.979 32.944C166.648 32.944 166.339 32.9867 166.051 33.072C165.774 33.1467 165.528 33.2693 165.315 33.44C165.112 33.6 164.952 33.7973 164.835 34.032C164.728 34.2667 164.675 34.5387 164.675 34.848C164.675 35.168 164.744 35.4453 164.883 35.68C165.032 35.904 165.23 36.1013 165.475 36.272C165.731 36.432 166.014 36.576 166.323 36.704C166.643 36.832 166.974 36.9493 167.315 37.056C167.731 37.184 168.142 37.3333 168.547 37.504C168.963 37.6747 169.336 37.8827 169.667 38.128C169.998 38.3733 170.264 38.6827 170.467 39.056C170.67 39.4187 170.771 39.8667 170.771 40.4C170.771 40.88 170.675 41.312 170.483 41.696C170.302 42.08 170.035 42.4053 169.683 42.672C169.342 42.928 168.942 43.1253 168.483 43.264C168.024 43.4027 167.523 43.472 166.979 43.472Z" fill="#3D3D3D"/>
<path d="M151.683 43.328C151.566 43.328 151.47 43.312 151.395 43.28C151.331 43.248 151.283 43.1947 151.251 43.12C151.23 43.0453 151.219 42.9493 151.219 42.832V32.64C151.219 32.5227 151.235 32.432 151.267 32.368C151.299 32.2933 151.347 32.24 151.411 32.208C151.486 32.176 151.582 32.16 151.699 32.16C151.817 32.16 151.907 32.176 151.971 32.208C152.046 32.24 152.094 32.2933 152.115 32.368C152.147 32.432 152.163 32.528 152.163 32.656V42.848C152.163 42.9653 152.147 43.0613 152.115 43.136C152.083 43.2 152.03 43.248 151.955 43.28C151.891 43.312 151.801 43.328 151.683 43.328Z" fill="#3D3D3D"/>
<path d="M133.512 43.328C133.384 43.328 133.283 43.312 133.208 43.28C133.133 43.248 133.08 43.2 133.048 43.136C133.016 43.0613 133 42.9653 133 42.848V32.656C133 32.528 133.011 32.432 133.032 32.368C133.064 32.2933 133.112 32.24 133.176 32.208C133.251 32.176 133.347 32.16 133.464 32.16C133.581 32.16 133.672 32.176 133.736 32.208C133.811 32.24 133.864 32.2933 133.896 32.368C133.928 32.432 133.944 32.5227 133.944 32.64V42.368H139.784C139.901 42.368 139.992 42.384 140.056 42.416C140.131 42.4373 140.184 42.4853 140.216 42.56C140.248 42.624 140.264 42.7147 140.264 42.832C140.264 42.9493 140.248 43.0453 140.216 43.12C140.195 43.1947 140.152 43.248 140.088 43.28C140.024 43.312 139.933 43.328 139.816 43.328H133.512Z" fill="#3D3D3D"/>
<rect x="48" y="37" width="77" height="1" fill="#8FC1E2"/>
<path d="M43 12.1667C43 10.94 42.5127 9.76365 41.6454 8.8963C40.778 8.02894 39.6016 7.54167 38.375 7.54167H37.1879C37.0514 7.54051 36.9174 7.50449 36.7987 7.43704C36.68 7.36959 36.5805 7.27294 36.5096 7.15625C36.309 6.8057 36.0195 6.51423 35.6704 6.31123C35.3212 6.10823 34.9247 6.00088 34.5208 6H12.1667C11.5534 6 10.9652 6.24364 10.5315 6.67732C10.0978 7.11099 9.85417 7.69919 9.85417 8.3125V9.46875C9.85417 9.57097 9.89477 9.669 9.96705 9.74128C10.0393 9.81356 10.1374 9.85417 10.2396 9.85417H12.1667C12.5755 9.85417 12.9677 10.0166 13.2568 10.3057C13.5459 10.5948 13.7083 10.987 13.7083 11.3958C13.7083 11.8047 13.5459 12.1968 13.2568 12.486C12.9677 12.7751 12.5755 12.9375 12.1667 12.9375H7.54167C7.13279 12.9375 6.74066 13.0999 6.45154 13.389C6.16243 13.6782 6 14.0703 6 14.4792C6 14.888 6.16243 15.2802 6.45154 15.5693C6.74066 15.8584 7.13279 16.0208 7.54167 16.0208H9.53042C9.63264 16.0208 9.73067 16.0614 9.80295 16.1337C9.87523 16.206 9.91583 16.304 9.91583 16.4062V21.0312C9.91583 21.1335 9.95644 21.2315 10.0287 21.3038C10.101 21.3761 10.199 21.4167 10.3012 21.4167H12.1667C12.5755 21.4167 12.9677 21.5791 13.2568 21.8682C13.5459 22.1573 13.7083 22.5495 13.7083 22.9583C13.7083 23.3672 13.5459 23.7593 13.2568 24.0485C12.9677 24.3376 12.5755 24.5 12.1667 24.5H7.54167C7.13279 24.5 6.74066 24.6624 6.45154 24.9515C6.16243 25.2407 6 25.6328 6 26.0417C6 26.4505 6.16243 26.8427 6.45154 27.1318C6.74066 27.4209 7.13279 27.5833 7.54167 27.5833H9.53042C9.63264 27.5833 9.73067 27.6239 9.80295 27.6962C9.87523 27.7685 9.91583 27.8665 9.91583 27.9688V32.5938C9.91583 32.696 9.95644 32.794 10.0287 32.8663C10.101 32.9386 10.199 32.9792 10.3012 32.9792H12.1667C12.5755 32.9792 12.9677 33.1416 13.2568 33.4307C13.5459 33.7198 13.7083 34.112 13.7083 34.5208C13.7083 34.9297 13.5459 35.3218 13.2568 35.611C12.9677 35.9001 12.5755 36.0625 12.1667 36.0625H7.54167C7.13279 36.0625 6.74066 36.2249 6.45154 36.514C6.16243 36.8032 6 37.1953 6 37.6042C6 38.013 6.16243 38.4052 6.45154 38.6943C6.74066 38.9834 7.13279 39.1458 7.54167 39.1458H9.53042C9.63264 39.1458 9.73067 39.1864 9.80295 39.2587C9.87523 39.331 9.91583 39.429 9.91583 39.5312V40.6875C9.91562 41.2903 10.1508 41.8693 10.5712 42.3013C10.9916 42.7332 11.5641 42.9839 12.1667 43H34.5208C34.9247 42.9991 35.3212 42.8918 35.6704 42.6888C36.0195 42.4858 36.309 42.1943 36.5096 41.8438C36.5805 41.7271 36.68 41.6304 36.7987 41.563C36.9174 41.4955 37.0514 41.4595 37.1879 41.4583H38.375C39.6016 41.4583 40.778 40.9711 41.6454 40.1037C42.5127 39.2363 43 38.06 43 36.8333V12.1667ZM29.4487 18.3333C29.4487 18.9466 29.2051 19.5348 28.7714 19.9685C28.3378 20.4022 27.7496 20.6458 27.1362 20.6458H20.6458C20.0325 20.6458 19.4443 20.4022 19.0106 19.9685C18.577 19.5348 18.3333 18.9466 18.3333 18.3333V14.4792C18.3333 13.8659 18.577 13.2777 19.0106 12.844C19.4443 12.4103 20.0325 12.1667 20.6458 12.1667H27.1362C27.7496 12.1667 28.3378 12.4103 28.7714 12.844C29.2051 13.2777 29.4487 13.8659 29.4487 14.4792V18.3333ZM39.9167 22.5729C39.9167 22.6751 39.8761 22.7732 39.8038 22.8454C39.7315 22.9177 39.6335 22.9583 39.5312 22.9583H37.2188C37.1165 22.9583 37.0185 22.9177 36.9462 22.8454C36.8739 22.7732 36.8333 22.6751 36.8333 22.5729V18.7188C36.8333 18.6165 36.8739 18.5185 36.9462 18.4462C37.0185 18.3739 37.1165 18.3333 37.2188 18.3333H39.5312C39.6335 18.3333 39.7315 18.3739 39.8038 18.4462C39.8761 18.5185 39.9167 18.6165 39.9167 18.7188V22.5729ZM36.8333 26.4271C36.8333 26.3249 36.8739 26.2268 36.9462 26.1546C37.0185 26.0823 37.1165 26.0417 37.2188 26.0417H39.5312C39.6335 26.0417 39.7315 26.0823 39.8038 26.1546C39.8761 26.2268 39.9167 26.3249 39.9167 26.4271V30.2812C39.9167 30.3835 39.8761 30.4815 39.8038 30.5538C39.7315 30.6261 39.6335 30.6667 39.5312 30.6667H37.2188C37.1165 30.6667 37.0185 30.6261 36.9462 30.5538C36.8739 30.4815 36.8333 30.3835 36.8333 30.2812V26.4271ZM39.9167 12.1667V14.8646C39.9167 14.9668 39.8761 15.0648 39.8038 15.1371C39.7315 15.2094 39.6335 15.25 39.5312 15.25H37.2188C37.1165 15.25 37.0185 15.2094 36.9462 15.1371C36.8739 15.0648 36.8333 14.9668 36.8333 14.8646V11.0104C36.8333 10.9082 36.8739 10.8102 36.9462 10.7379C37.0185 10.6656 37.1165 10.625 37.2188 10.625H38.375C38.7839 10.625 39.176 10.7874 39.4651 11.0765C39.7542 11.3657 39.9167 11.7578 39.9167 12.1667ZM39.9167 36.8333C39.9167 37.2422 39.7542 37.6343 39.4651 37.9235C39.176 38.2126 38.7839 38.375 38.375 38.375H37.2188C37.1165 38.375 37.0185 38.3344 36.9462 38.2621C36.8739 38.1898 36.8333 38.0918 36.8333 37.9896V34.1354C36.8333 34.0332 36.8739 33.9352 36.9462 33.8629C37.0185 33.7906 37.1165 33.75 37.2188 33.75H39.5312C39.6335 33.75 39.7315 33.7906 39.8038 33.8629C39.8761 33.9352 39.9167 34.0332 39.9167 34.1354V36.8333Z" fill="#31708F"/>
<path d="M37 6.16667C37 4.94004 36.5127 3.76365 35.6454 2.8963C34.778 2.02894 33.6016 1.54167 32.375 1.54167H31.1879C31.0514 1.54051 30.9174 1.50449 30.7987 1.43704C30.68 1.36959 30.5805 1.27294 30.5096 1.15625C30.309 0.8057 30.0195 0.514231 29.6704 0.311233C29.3212 0.108234 28.9247 0.000881963 28.5208 0L6.16667 0C5.55335 0 4.96516 0.243638 4.53148 0.677316C4.0978 1.11099 3.85417 1.69919 3.85417 2.3125V3.46875C3.85417 3.57097 3.89477 3.669 3.96705 3.74128C4.03933 3.81356 4.13736 3.85417 4.23958 3.85417H6.16667C6.57554 3.85417 6.96767 4.01659 7.25679 4.30571C7.54591 4.59483 7.70833 4.98696 7.70833 5.39583C7.70833 5.80471 7.54591 6.19684 7.25679 6.48596C6.96767 6.77507 6.57554 6.9375 6.16667 6.9375H1.54167C1.13279 6.9375 0.740662 7.09993 0.451544 7.38904C0.162425 7.67816 0 8.07029 0 8.47917C0 8.88804 0.162425 9.28017 0.451544 9.56929C0.740662 9.85841 1.13279 10.0208 1.54167 10.0208H3.53042C3.63264 10.0208 3.73067 10.0614 3.80295 10.1337C3.87523 10.206 3.91583 10.304 3.91583 10.4062V15.0312C3.91583 15.1335 3.95644 15.2315 4.02872 15.3038C4.101 15.3761 4.19903 15.4167 4.30125 15.4167H6.16667C6.57554 15.4167 6.96767 15.5791 7.25679 15.8682C7.54591 16.1573 7.70833 16.5495 7.70833 16.9583C7.70833 17.3672 7.54591 17.7593 7.25679 18.0485C6.96767 18.3376 6.57554 18.5 6.16667 18.5H1.54167C1.13279 18.5 0.740662 18.6624 0.451544 18.9515C0.162425 19.2407 0 19.6328 0 20.0417C0 20.4505 0.162425 20.8427 0.451544 21.1318C0.740662 21.4209 1.13279 21.5833 1.54167 21.5833H3.53042C3.63264 21.5833 3.73067 21.6239 3.80295 21.6962C3.87523 21.7685 3.91583 21.8665 3.91583 21.9688V26.5938C3.91583 26.696 3.95644 26.794 4.02872 26.8663C4.101 26.9386 4.19903 26.9792 4.30125 26.9792H6.16667C6.57554 26.9792 6.96767 27.1416 7.25679 27.4307C7.54591 27.7198 7.70833 28.112 7.70833 28.5208C7.70833 28.9297 7.54591 29.3218 7.25679 29.611C6.96767 29.9001 6.57554 30.0625 6.16667 30.0625H1.54167C1.13279 30.0625 0.740662 30.2249 0.451544 30.514C0.162425 30.8032 0 31.1953 0 31.6042C0 32.013 0.162425 32.4052 0.451544 32.6943C0.740662 32.9834 1.13279 33.1458 1.54167 33.1458H3.53042C3.63264 33.1458 3.73067 33.1864 3.80295 33.2587C3.87523 33.331 3.91583 33.429 3.91583 33.5312V34.6875C3.91562 35.2903 4.15077 35.8693 4.5712 36.3013C4.99163 36.7332 5.5641 36.9839 6.16667 37H28.5208C28.9247 36.9991 29.3212 36.8918 29.6704 36.6888C30.0195 36.4858 30.309 36.1943 30.5096 35.8438C30.5805 35.7271 30.68 35.6304 30.7987 35.563C30.9174 35.4955 31.0514 35.4595 31.1879 35.4583H32.375C33.6016 35.4583 34.778 34.9711 35.6454 34.1037C36.5127 33.2363 37 32.06 37 30.8333V6.16667ZM23.4487 12.3333C23.4487 12.9466 23.2051 13.5348 22.7714 13.9685C22.3378 14.4022 21.7496 14.6458 21.1362 14.6458H14.6458C14.0325 14.6458 13.4443 14.4022 13.0106 13.9685C12.577 13.5348 12.3333 12.9466 12.3333 12.3333V8.47917C12.3333 7.86585 12.577 7.27766 13.0106 6.84398C13.4443 6.4103 14.0325 6.16667 14.6458 6.16667H21.1362C21.7496 6.16667 22.3378 6.4103 22.7714 6.84398C23.2051 7.27766 23.4487 7.86585 23.4487 8.47917V12.3333ZM33.9167 16.5729C33.9167 16.6751 33.8761 16.7732 33.8038 16.8454C33.7315 16.9177 33.6335 16.9583 33.5312 16.9583H31.2188C31.1165 16.9583 31.0185 16.9177 30.9462 16.8454C30.8739 16.7732 30.8333 16.6751 30.8333 16.5729V12.7188C30.8333 12.6165 30.8739 12.5185 30.9462 12.4462C31.0185 12.3739 31.1165 12.3333 31.2188 12.3333H33.5312C33.6335 12.3333 33.7315 12.3739 33.8038 12.4462C33.8761 12.5185 33.9167 12.6165 33.9167 12.7188V16.5729ZM30.8333 20.4271C30.8333 20.3249 30.8739 20.2268 30.9462 20.1546C31.0185 20.0823 31.1165 20.0417 31.2188 20.0417H33.5312C33.6335 20.0417 33.7315 20.0823 33.8038 20.1546C33.8761 20.2268 33.9167 20.3249 33.9167 20.4271V24.2812C33.9167 24.3835 33.8761 24.4815 33.8038 24.5538C33.7315 24.6261 33.6335 24.6667 33.5312 24.6667H31.2188C31.1165 24.6667 31.0185 24.6261 30.9462 24.5538C30.8739 24.4815 30.8333 24.3835 30.8333 24.2812V20.4271ZM33.9167 6.16667V8.86458C33.9167 8.9668 33.8761 9.06483 33.8038 9.13711C33.7315 9.20939 33.6335 9.25 33.5312 9.25H31.2188C31.1165 9.25 31.0185 9.20939 30.9462 9.13711C30.8739 9.06483 30.8333 8.9668 30.8333 8.86458V5.01042C30.8333 4.9082 30.8739 4.81017 30.9462 4.73789C31.0185 4.66561 31.1165 4.625 31.2188 4.625H32.375C32.7839 4.625 33.176 4.78743 33.4651 5.07654C33.7542 5.36566 33.9167 5.75779 33.9167 6.16667ZM33.9167 30.8333C33.9167 31.2422 33.7542 31.6343 33.4651 31.9235C33.176 32.2126 32.7839 32.375 32.375 32.375H31.2188C31.1165 32.375 31.0185 32.3344 30.9462 32.2621C30.8739 32.1898 30.8333 32.0918 30.8333 31.9896V28.1354C30.8333 28.0332 30.8739 27.9352 30.9462 27.8629C31.0185 27.7906 31.1165 27.75 31.2188 27.75H33.5312C33.6335 27.75 33.7315 27.7906 33.8038 27.8629C33.8761 27.9352 33.9167 28.0332 33.9167 28.1354V30.8333Z" fill="#8FC1E2"/>
</svg>
