<svg width="26" height="26" viewBox="0 0 26 26" fill="none" xmlns="http://www.w3.org/2000/svg">
<g clip-path="url(#clip0_152_738)">
<path d="M19.0807 16.809C20.6542 14.6619 21.359 11.9998 21.054 9.35538C20.749 6.71095 19.4568 4.27919 17.4359 2.5466C15.4149 0.814007 12.8143 -0.0916335 10.1544 0.0108604C7.49437 0.113354 4.97117 1.21642 3.08955 3.09939C1.20794 4.98235 0.106676 7.50633 0.00608577 10.1664C-0.0945047 12.8264 0.812997 15.4264 2.54703 17.4461C4.28107 19.4658 6.71375 20.7562 9.3584 21.0593C12.003 21.3624 14.6646 20.6558 16.8106 19.0808H16.809C16.8567 19.1458 16.9097 19.2081 16.9682 19.2676L23.2245 25.5239C23.5292 25.8288 23.9425 26.0002 24.3736 26.0003C24.8047 26.0005 25.2181 25.8294 25.5231 25.5247C25.828 25.22 25.9994 24.8066 25.9995 24.3756C25.9997 23.9445 25.8286 23.5311 25.5239 23.2261L19.2676 16.9699C19.2096 16.911 19.1471 16.8583 19.0807 16.809ZM19.5 10.5625C19.5 11.7362 19.2688 12.8984 18.8197 13.9827C18.3705 15.0671 17.7122 16.0524 16.8823 16.8823C16.0523 17.7122 15.0671 18.3705 13.9827 18.8197C12.8984 19.2688 11.7362 19.5 10.5625 19.5C9.38881 19.5 8.22661 19.2688 7.14226 18.8197C6.05791 18.3705 5.07265 17.7122 4.24273 16.8823C3.4128 16.0524 2.75447 15.0671 2.30532 13.9827C1.85617 12.8984 1.62499 11.7362 1.62499 10.5625C1.62499 8.19214 2.56662 5.91885 4.24273 4.24274C5.91883 2.56664 8.19212 1.62501 10.5625 1.62501C12.9329 1.62501 15.2062 2.56664 16.8823 4.24274C18.5584 5.91885 19.5 8.19214 19.5 10.5625Z" fill="#3D3D3D"/>
</g>
<defs>
<clipPath id="clip0_152_738">
<rect width="26" height="26" fill="white"/>
</clipPath>
</defs>
</svg>
