<svg width="14" height="14" viewBox="0 0 14 14" fill="none" xmlns="http://www.w3.org/2000/svg">
<path d="M6 13.208C5.824 13.208 5.672 13.152 5.544 13.04C5.432 12.912 5.376 12.76 5.376 12.584V8.456H1.368C1.192 8.456 1.04 8.4 0.912 8.288C0.8 8.16 0.744 8.008 0.744 7.832V5.648C0.744 5.472 0.8 5.328 0.912 5.216C1.04 5.088 1.192 5.024 1.368 5.024H5.376V1.016C5.376 0.839999 5.432 0.695999 5.544 0.584C5.672 0.455999 5.824 0.391999 6 0.391999H8.448C8.624 0.391999 8.768 0.455999 8.88 0.584C9.008 0.695999 9.072 0.839999 9.072 1.016V5.024H13.032C13.208 5.024 13.352 5.088 13.464 5.216C13.592 5.328 13.656 5.472 13.656 5.648V7.832C13.656 8.008 13.592 8.16 13.464 8.288C13.352 8.4 13.208 8.456 13.032 8.456H9.072V12.584C9.072 12.76 9.008 12.912 8.88 13.04C8.768 13.152 8.624 13.208 8.448 13.208H6Z" fill="white"/>
</svg>
