<svg width="24" height="25" viewBox="0 0 24 25" fill="none" xmlns="http://www.w3.org/2000/svg">
<path d="M21 7.425V20C21 20.4 20.85 20.75 20.55 21.05C20.25 21.35 19.9 21.5 19.5 21.5H4.5C4.1 21.5 3.75 21.35 3.45 21.05C3.15 20.75 3 20.4 3 20V5C3 4.6 3.15 4.25 3.45 3.95C3.75 3.65 4.1 3.5 4.5 3.5H17.075L21 7.425ZM11.994 18.375C12.7147 18.375 13.3291 18.1228 13.8375 17.6185C14.3458 17.114 14.6 16.5015 14.6 15.781C14.6 15.0604 14.3478 14.4459 13.8435 13.9375C13.339 13.4291 12.7265 13.175 12.006 13.175C11.2853 13.175 10.6709 13.4272 10.1625 13.9315C9.65415 14.436 9.4 15.0485 9.4 15.769C9.4 16.4896 9.65215 17.1041 10.1565 17.6125C10.661 18.1208 11.2735 18.375 11.994 18.375ZM5.825 9.9H14.775V6.325H5.825V9.9Z" fill="#8FC1E2"/>
</svg>
