<svg width="23" height="23" viewBox="0 0 23 23" fill="none" xmlns="http://www.w3.org/2000/svg">
<g clip-path="url(#clip0_144_28)">
<path fill-rule="evenodd" clip-rule="evenodd" d="M7.49704 3.22775C7.62421 2.84594 7.86833 2.51384 8.1948 2.27853C8.52127 2.04323 8.91353 1.91665 9.31596 1.91675H13.684C14.0865 1.91665 14.4787 2.04323 14.8052 2.27853C15.1317 2.51384 15.3758 2.84594 15.503 3.22775L16.0233 4.79175H19.1667C19.2925 4.79175 19.4171 4.81654 19.5334 4.8647C19.6497 4.91286 19.7553 4.98345 19.8443 5.07244C19.9333 5.16143 20.0039 5.26707 20.0521 5.38334C20.1002 5.49961 20.125 5.62423 20.125 5.75008C20.125 5.87593 20.1002 6.00055 20.0521 6.11682C20.0039 6.23309 19.9333 6.33874 19.8443 6.42773C19.7553 6.51671 19.6497 6.5873 19.5334 6.63547C19.4171 6.68363 19.2925 6.70841 19.1667 6.70841H18.2083V18.2084C18.2083 18.9709 17.9054 19.7022 17.3663 20.2413C16.8271 20.7805 16.0958 21.0834 15.3333 21.0834H7.66667C6.90417 21.0834 6.1729 20.7805 5.63373 20.2413C5.09457 19.7022 4.79167 18.9709 4.79167 18.2084V6.70841H3.83333C3.57917 6.70841 3.33541 6.60745 3.15569 6.42773C2.97597 6.248 2.875 6.00425 2.875 5.75008C2.875 5.49592 2.97597 5.25216 3.15569 5.07244C3.33541 4.89271 3.57917 4.79175 3.83333 4.79175H6.97667L7.49704 3.22775ZM8.99587 4.79175L9.31596 3.83341H13.684L14.0041 4.79175H8.99587Z" fill="white"/>
</g>
<defs>
<clipPath id="clip0_144_28">
<rect width="23" height="23" fill="white"/>
</clipPath>
</defs>
</svg>
