<svg width="25" height="25" viewBox="0 0 25 25" fill="none" xmlns="http://www.w3.org/2000/svg">
<g clip-path="url(#clip0_80_295)">
<path d="M9.375 12.5C9.375 13.3288 9.70424 14.1237 10.2903 14.7097C10.8763 15.2958 11.6712 15.625 12.5 15.625C13.3288 15.625 14.1237 15.2958 14.7097 14.7097C15.2958 14.1237 15.625 13.3288 15.625 12.5C15.625 11.6712 15.2958 10.8763 14.7097 10.2903C14.1237 9.70424 13.3288 9.375 12.5 9.375C11.6712 9.375 10.8763 9.70424 10.2903 10.2903C9.70424 10.8763 9.375 11.6712 9.375 12.5Z" fill="#C4C4C4"/>
<path d="M24.172 12.2344C23.2532 9.85754 21.658 7.80204 19.5836 6.32194C17.5092 4.84184 15.0466 4.00201 12.5002 3.90625C9.95368 4.00201 7.49108 4.84184 5.41672 6.32194C3.34236 7.80204 1.74716 9.85754 0.828281 12.2344C0.766224 12.406 0.766224 12.594 0.828281 12.7656C1.74716 15.1425 3.34236 17.198 5.41672 18.6781C7.49108 20.1582 9.95368 20.998 12.5002 21.0938C15.0466 20.998 17.5092 20.1582 19.5836 18.6781C21.658 17.198 23.2532 15.1425 24.172 12.7656C24.2341 12.594 24.2341 12.406 24.172 12.2344ZM12.5002 17.5781C11.4958 17.5781 10.514 17.2803 9.6789 16.7223C8.84381 16.1643 8.19293 15.3712 7.80858 14.4433C7.42423 13.5154 7.32367 12.4944 7.51961 11.5093C7.71555 10.5242 8.19919 9.61941 8.90938 8.90922C9.61957 8.19903 10.5244 7.71539 11.5095 7.51945C12.4945 7.32351 13.5156 7.42407 14.4435 7.80842C15.3714 8.19278 16.1645 8.84365 16.7225 9.67875C17.2805 10.5138 17.5783 11.4956 17.5783 12.5C17.5762 13.8462 17.0405 15.1366 16.0887 16.0885C15.1368 17.0404 13.8463 17.5761 12.5002 17.5781Z" fill="#C4C4C4"/>
</g>
<defs>
<clipPath id="clip0_80_295">
<rect width="25" height="25" fill="white"/>
</clipPath>
</defs>
</svg>
